<?xml version="1.0" encoding="UTF-8"?>
<svg id="Layer_1" data-name="Layer 1" xmlns="http://www.w3.org/2000/svg" viewBox="0 0 2500 2500">
  <defs>
    <style>
      .cls-1 {
        fill: #313133;
        fill-rule: evenodd;
      }
    </style>
  </defs>
  <path class="cls-1" d="M292.2,1425.8c-141.1,0-255.4-114.2-255.4-255.1s114.4-255.1,255.4-255.1,99.5,15.2,139.6,41.5l695.8,468.8H292.2Zm70.6-574.1c-118.2-76.7-151.8-234.6-75-352.7,76.7-118.1,234.8-151.7,352.9-75,41.6,26.9,74.4,65.3,94.4,110.6l355.6,810.6L362.8,851.7h0Zm1844.5,574.3c141.4,0,256-114.3,256-255.4s-114.6-255.4-256-255.4-99.7,15.3-139.9,41.5l-697.4,469.3h837.3s0,0,0,0Zm-70.6-574.4c118.4-76.8,152.1-234.9,75.2-353.1s-235.3-151.8-353.7-75c-41.7,26.9-74.5,65.4-94.6,110.8l-356.4,811.3,729.5-494h0Zm-785.4-480c-18.2,14.1-68.2,21.8-57.4,110.8l108,755.1,360.1-823.1c57.6-128.9-.6-279.9-129.8-337.3-129.3-57.4-280.7,.6-338.3,129.5-18.7,41.6-25.8,87.5-20.5,132.8h67.9c38.5,1.8,58.7,12,10.1,32.2h0Zm-613.8,43c-57.4-128.8,.6-279.7,129.6-337,129-57.3,280.1,.6,337.6,129.4,20.3,45.2,26.8,95.4,18.9,144.3l-126.7,885.7L737.4,414.7h0Zm1563.4,1996.4c-41.4,16.8-102.9,33.9-159.8,33.9-260.5,0-471.7-200-471.7-446.7s211.2-446.7,471.7-446.7,117.5,13.7,159.8,33.1v170.8c-47.5-31.2-103-47.8-159.8-47.7-160.8,0-291.2,130.1-291.2,290.6s130.4,290.5,291.2,290.5,114.1-17.4,159.8-47.2v169.5h0ZM733.6,1580.8h173.2v853.4l-533.1-486.8v468.2H200.5v-853.2l533.1,486.8v-468.4h0Zm753.4,388.7c52.9-39.2,98.9-76.5,98.5-175.1-.6-129.7-105.6-214.3-235.8-214.3h-343.6v836.4h385.4c136.5,0,240.4-103.6,240.4-239.6s-112.5-195.4-144.9-207.3h0Zm-306.8-263h128.7c60.3,0,109.1,48.7,109.1,108.8s-48.8,108.8-109.1,108.8h-128.7v-217.5Zm156.7,584.4h-156.7v-241.9l156.7-.7c67.2,0,121.6,54.3,121.6,121.3s-54.5,121.3-121.7,121.3Z"/>
</svg>