<?xml version="1.0" encoding="UTF-8"?>
<svg id="Layer_1" data-name="Layer 1" xmlns="http://www.w3.org/2000/svg" viewBox="0 0 432 189">
  <defs>
    <style>
      .cls-1 {
        fill: #414042;
      }
    </style>
  </defs>
  <path class="cls-1" d="M403.7,154.9h-24.3v30.5h24.3v-8.5h-13.8v-2.7h11.6v-8.1h-11.6v-2.6h13.8v-8.5Zm-40.6,0h-10.5v30.5h24.3v-9h-13.8v-21.5Zm-64.7,19.9h-10.8c1.2,9.5,9.3,11.3,14.8,11.3,8.6,0,14.1-3.8,14.1-10.4s-3.9-8-8.7-9.3l-5.7-1.5c-1.4-.4-1.9-.7-1.9-1.6s.9-1.4,2.2-1.4c2,0,2.6,1.7,3,3h10.7c-.9-9.1-9.5-10.5-14-10.5-7.6,0-13.1,3.7-13.1,10.4s3.1,7.2,9.1,8.7l5.2,1.3c1.4,.4,1.6,.9,1.6,1.5s-.9,1.4-2.3,1.4c-2.3,0-3.5-1.1-4-2.9m-14.7-45.8v-2.7h11.6v-8.1h-11.6v-2.6h13.8v-8.5h-24.3v30.5h24.3v-8.5h-13.8Zm-14.4,34.6h2.9c2.4,0,3.8,1.2,3.8,3.4s-1.4,3.4-3.8,3.4h-2.9v-6.8Zm2.9-8.7h-13.4v30.5h10.5v-6.3h2.9c9.3,0,14.5-4.3,14.5-12.1s-5.2-12.1-14.5-12.1m-27.3-17.3v-12.1l4.5,6.5h0c0,.1,5.3,.1,5.3,.1h0c0-.1,4.5-6.7,4.5-6.7v12.1h10.5v-30.5h-8.3l-9.3,12.2-9.3-12.2h-8.3v30.5h10.5Zm-7.8,36.2l2.4-7,2.4,7h-4.8Zm-2.8-19l-12.4,30.7h11.2l1.2-3.5h10.4l1.2,3.5h11.2l-12.4-30.7h-10.4Zm-23.3-95.5v15.7c0,3.6-1.7,5.6-4.6,5.6s-4.6-2-4.6-5.6v-15.7h-10.7v15.2c0,10.5,5.5,15.9,15.2,15.9s15.2-5.4,15.2-15.9v-15.2h-10.7Zm19.8,47.8h-10.5v30.5h10.5v-30.5Zm-39.9,63.1c0,9.1,6.7,15.9,16.7,15.9s15.9-6,16-14.3h-10.8c-.3,2.5-2.2,4.7-5.4,4.7s-5.9-3.1-5.9-6.3,2.1-6.3,5.9-6.3,5.1,2.2,5.4,4.7h10.8c-.1-8.3-6.6-14.3-16-14.3s-16.7,6.8-16.7,15.9M147.7,30.3c0,5-3.1,9.8-8.6,13.6-12.6,8.4-33,8.4-45.5,0-5.6-3.7-8.6-8.5-8.6-13.5,0-5,3.1-9.8,8.6-13.6,6.3-4.2,14.5-6.3,22.8-6.3s16.5,2.1,22.8,6.3c5.6,3.7,8.6,8.5,8.6,13.5m-56.7,147.7H38.8c-17.3,0-31.4-14.1-31.4-31.4,0-17.3,14.1-31.4,31.4-31.4h38.6v35.9c0,11.3,5,20.8,13.5,26.8m64.1-26.8V30.6h0c0-.1,0-.2,0-.4,0-7.6-4.2-14.6-11.9-19.7C128.1,.4,104.5,.4,89.4,10.5c-7.5,5-11.7,11.8-11.9,19.1h0s0,.1,0,.1c0,.2,0,.3,0,.5s0,.3,0,.5V107.8H38.8C17.4,107.8,0,125.2,0,146.6s17.4,38.8,38.8,38.8H116.3s0,0,0,0c22.9,0,38.8-14.1,38.8-34.3m62.8-44.1h-27.4v9h8.4v21.5h10.5v-21.5h8.4v-9Zm-4.1-80.4c0,3.2-2.4,6.1-6.1,6.1s-6.1-2.9-6.1-6.1,2.4-6.1,6.1-6.1,6.1,2.9,6.1,6.1m10.7,0c0-9.1-6.7-15.9-16.7-15.9s-16.7,6.8-16.7,15.9,6.7,15.9,16.7,15.9,16.7-6.8,16.7-15.9m10.9,41.3h2.9c2.4,0,3.8,1.2,3.8,3.4s-1.4,3.4-3.8,3.4h-2.9v-6.8Zm2.9-8.7h-13.4v30.5h10.5v-6.3h2.9c9.3,0,14.5-4.3,14.5-12.1s-5.2-12.1-14.5-12.1m10.4-17.3h8.3V11.4h-10.5v12.2l-10.7-12.2h-8.3v30.5h10.5v-12.1l10.7,12h0Zm22.4,26.6c3.6,0,6.1,2.9,6.1,6.1s-2.4,6.1-6.1,6.1-6.1-2.9-6.1-6.1,2.4-6.1,6.1-6.1m0-9.8c-10,0-16.7,6.8-16.7,15.9s6.7,15.9,16.7,15.9,16.7-6.8,16.7-15.9-6.7-15.9-16.7-15.9m-.5-31.9c0-3.2,2.1-6.3,5.9-6.3s5.1,2.2,5.4,4.7h10.8c-.1-8.3-6.6-14.3-16-14.3s-16.7,6.8-16.7,15.9,6.7,15.9,16.7,15.9,15.9-6,16-14.3h-10.8c-.3,2.5-2.2,4.7-5.4,4.7s-5.9-3.1-5.9-6.3m25,15.2h24.3v-8.5h-13.8v-2.7h11.6v-8.1h-11.6v-2.6h13.8V11.4h-24.3v30.5Zm16.5,47.8h8.3v-30.5h-10.5v12.2l-10.7-12.2h-8.3v30.5h10.5v-12.1l10.7,12h0Zm22.3,86.6c-2.9,0-4.6-2-4.6-5.6v-15.7h-10.7v15.2c0,10.5,5.5,15.9,15.2,15.9s15.2-5.4,15.2-15.9v-15.2h-10.7v15.7c0,3.6-1.7,5.6-4.6,5.6m20.6-101.8c0,3.2-2.4,6.1-6.1,6.1s-6.1-2.9-6.1-6.1,2.4-6.1,6.1-6.1,6.1,2.9,6.1,6.1m10.7,0c0-9.1-6.7-15.9-16.7-15.9s-16.7,6.8-16.7,15.9,6.7,15.9,16.7,15.9,16.7-6.8,16.7-15.9m33,0v-15.2h-10.7v15.7c0,3.6-1.7,5.6-4.6,5.6s-4.6-2-4.6-5.6v-15.7h-10.7v15.2c0,10.5,5.5,15.9,15.2,15.9s15.2-5.4,15.2-15.9m20.8-3.9c0,1.7-1.3,2.9-3.4,2.9h-3.8v-5.5h3.8c2,0,3.4,1,3.4,2.6m10.7,0c0-7.3-5.1-11.4-14-11.4h-14.3v30.5h10.5v-7.2h4.4l3.8,7.2h11.7l-5.9-10.5c2.5-2.2,3.8-5.2,3.8-8.6"/>
</svg>