<?xml version="1.0" encoding="UTF-8"?>
<svg id="svg12696" xmlns="http://www.w3.org/2000/svg" viewBox="0 0 302.4 45.7">
  <defs>
    <style>
      .cls-1 {
        fill: #313133;
      }
    </style>
  </defs>
  <g id="layer1">
    <g id="g12647">
      <path id="path1642" class="cls-1" d="M63.4,4.3c-1.3,.9-2.7,2.4-3.5,3.5-.9-1.1-2.4-2.5-3.6-3.3,1.2-.9,2.9-2.7,3.6-3.7,.7,1,2.4,2.7,3.5,3.5"/>
      <path id="path1644" class="cls-1" d="M84.4,13.4c-.2,2.4-2,4.8-4.6,4.8s-3.9-1-4.7-2.7l-.3,.2V31.9c1.4,.7,3.5,2,4.7,2.8l2.6-2.6,.4,.4-6.1,6.3c-2.7-2-6.4-4.2-8.7-5.3h0c1.1-.8,1.5-1.8,1.5-4.4v-11c4.2-1.6,7.5-3.9,9.9-6,.5,.8,1.5,1.7,2.9,1.7s2-.3,2.4-.6l.2,.2h0Z"/>
      <path id="path1646" class="cls-1" d="M67.1,33.5l-5.1,5.3c-1.3-1.1-3.7-2.7-5.7-3.8h0c.8-.4,1.3-1.7,1.3-3.2v-14.6l-1.8-1.3-1.5,1.5-.4-.4,5-5.2c1.2,1,3.6,2.6,5.6,3.7h0c-.8,.6-1.2,2.2-1.2,4v13.9l1.9,1.2,1.5-1.6,.4,.4Z"/>
      <path id="path1648" class="cls-1" d="M55.4,33.6l-5.1,5.2c-1-.8-3.1-2.2-4.5-2.9V18.3c-1.1-.5-2.6-1.6-3.2-2.2l-1.8,1.9v15.5l2.5,1.4h0c0,.1-3.7,3.9-3.7,3.9-1.4-1.2-3.8-2.8-5.7-3.7h0c.7-.7,1.2-1.8,1.2-4V4.7c0-2-.4-2.6-.8-3.3h.3c.9,.6,1.4,1.3,1.6,2.6h0c1.3-2.1,2.9-3.5,6-3.9v.2c-.8,1.1-1.4,2.2-1.4,4v12.9l4.9-5.2c1.7,1.4,4.5,3.6,7,4.9h0c-.7,.8-1.1,2.2-1.1,4.6v12.1l1.9,1.2,1.5-1.6,.4,.4Z"/>
      <path id="path1650" class="cls-1" d="M24.7,37.2h-.4V7.6h.4v29.6Z"/>
      <path id="path1652" class="cls-1" d="M32.8,32.8c-2.6,3-7.5,7.9-15,7.9S0,33.8,0,21.9,9,4.9,14.8,2.6l.5,.2c-5.5,3.6-8.5,8.1-8.5,15.8s2.4,11.6,6.1,14.4l1.2-.8V15.2c0-3.1-.6-5.2-1.5-6v-.2C17.2,6.9,21.9,3.6,25.1,.6c1,1.2,2.2,1.7,3.8,1.7s2.8-.6,3.6-1.2l.3,.2c-.1,3.5-2,6.7-6.3,6.7s-4.2-.9-5.5-2.5h-.2V28.6c-2.1,1.2-5.6,3.6-7.3,4.8,2.5,1.7,6.1,2,9.8,2s6.5-1.4,9.3-3.3l.2,.6h0Z"/>
      <path id="path1654" class="cls-1" d="M138.4,35.1V18.6c-1.3-.8-3.5-2.5-4.4-3.2l-.6,.4v16.5c.9,.5,2.7,1.9,4.4,3.2l.6-.4Zm7.1-18.1c-.8,.4-1.3,1.5-1.3,3.8v11.9c-2.4,1-7.8,4.1-10.5,6.2-2.8-2.1-4.3-3.2-7.5-4.9h0c.8-.6,1.3-1.9,1.3-4v-11.7c3.6-1.8,7.6-4.2,10.4-6.3,1.8,1.3,5.3,3.7,7.5,4.9h0q0,.1,0,.1Z"/>
      <path id="path1656" class="cls-1" d="M116.4,33.8v-15.4c-1.9-1.2-3.6-2.4-4.4-3.1l-.6,.4v16.4c1,.6,3.1,2.1,4,2.8l1-1h0Zm8.2,3.1c0,1.6-2.2,3.2-4.6,5.1-3.1,2.5-4.7,3.7-4.7,3.7-1.5-.9-2.4-1.1-4.7-1.1s-4.5,.3-6.5,1.1h-.1c1.6-3.1,4.9-5.6,9.5-5.6s4.3,.8,5.8,1.8c.4-.3,1.7-1.2,1.7-1.9,0-2-3.8-1.8-4.4-5.6l-4.3,4.3c-1.9-1.5-5.7-3.9-7.8-5v-.2c.9-.6,1.2-1.3,1.2-3.3v-12.2c4.2-2.2,8.1-4.5,10.5-6.3,1.9,1.5,5.4,3.8,7.4,4.9h0c-.9,.7-1.2,1.6-1.2,4.7v9.7c0,3.2,2.3,3,2.3,5.7"/>
      <path id="path1658" class="cls-1" d="M93.8,34.5v-10.7c-3.5,.4-5.4,2.9-5.4,5.9s1.7,4.7,4.2,5.5l1.2-.8Zm0-11.2v-4.7c-1.4-.8-3.9-2.5-4.9-3.4l-.6,.4c.2,2.8,.6,6.5,2.5,8.4,.7-.2,2.3-.5,3.1-.6m10,10.2l-5.1,5.1c-1.2-1-3.7-2.7-5.1-3.4h0c-1.7,1.2-3.1,2.3-4.8,3.5-3-1-5.5-3.7-5.5-6.9s3.4-6.5,6.6-7.6h0c-2.7-1.4-5-3.9-5.6-6.9l8.8-5.4c1.7,1.5,5.7,4,7.9,5.3h0c-1.1,.8-1.4,1.7-1.4,4v12l2.3,1.5,1.5-1.5,.4,.4h0Z"/>
      <path id="path1660" class="cls-1" d="M284.5,33.7l-5.1,5.2c-1.3-1-3.4-2.3-4.5-3V18.2c-.9-.5-2.2-1.5-2.7-2l-2.4,2.4v14.9c.8,.3,1.9,1,2.5,1.4h0c0,.1-3.7,3.9-3.7,3.9-1.4-1.1-3.8-2.7-5.8-3.7h0c.8-.6,1.2-1.6,1.2-3.9v-13l-2.7-2.2-1.5,1.5-.4-.4,5.1-5.2c.9,1,3.4,3,5.3,4.1v1.6l5.4-5.7c1.9,1.5,4.9,3.4,6.7,4.5h0c-1,.6-1.2,1.9-1.2,4.2v12.8l2,1.3,1.5-1.5,.4,.4h0Z"/>
      <path id="path1662" class="cls-1" d="M261.8,33.5l-5.1,5.3c-1.4-1.1-3.6-2.6-5-3.4v-1.8l-5.8,5.3c-2.3-1.9-4.3-3.2-6.3-4.2h0c1.1-.7,1.3-1.8,1.3-4.3v-13.1l-1.8-1.3-1.6,1.6-.4-.4,5.1-5.3c1,.8,3.1,2.3,4.5,3v18c.6,.3,1.7,1.1,2.7,1.9l2.3-2.1s0-11.3,0-15.5c-.6-.5-1.8-1.1-2.4-1.4h0c1-1,2.9-2.8,3.7-3.9,1.4,1.1,4.3,2.9,5.7,3.7h0c-.9,.5-1.2,1.4-1.2,3.5v14.1l2.6,1.4,1.4-1.5,.3,.3h0Z"/>
      <path id="path1664" class="cls-1" d="M212.9,4.3c-1.2,.8-2.8,2.6-3.5,3.6-.6-.7-2-2.2-3.5-3.4,1-.8,2.8-2.6,3.5-3.8,.8,1,2.5,2.8,3.5,3.6"/>
      <path id="path1666" class="cls-1" d="M216.6,33.5l-5.1,5.3c-1.5-1.2-4.1-2.9-5.7-3.8h0c.9-.7,1.2-1.8,1.2-3.5v-14.3l-1.9-1.3-1.4,1.5-.4-.4,5-5.2c1.4,1.3,4.2,3,5.6,3.7h0c-.8,.6-1.2,1.4-1.2,3.5v14.4l2,1.2,1.5-1.6,.4,.4h0Z"/>
      <path id="path1668" class="cls-1" d="M203.7,13.6c-.2,2.1-2,4.8-4.3,4.8s-3-.8-3.9-2l-.6,.6v15.5c1.4,.7,3.2,1.8,4,2.3l1.5-1.5,.4,.4-5.2,5.3c-2.4-1.8-5.7-3.9-7.6-4.9h0c.9-.3,1.2-1,1.2-2.4v-13.3l-2.6-2.2-1.4,1.6-.4-.4,4.9-5.2c1.5,1.6,3.9,3.5,5.1,4.3l4.1-4.3c.8,.9,1.6,1.7,3,1.7s1.2-.2,1.6-.4l.2,.2h0Z"/>
      <path id="path1670" class="cls-1" d="M188.1,1.1c-.6,4.4-2.4,8.3-7.1,8.3s-1.6,0-2-.1v26.2c2.8-.4,6.3-1.8,7.7-2.9l.2,.5c-2.1,3.1-8,7.7-15.3,7.7s-16.4-6.1-16.4-15.9,7-14.5,11.5-16.1l.4,.2c-3.2,2.9-5.4,6.8-5.4,13s2.1,8.6,5.3,11.2l1.4-.9v-12.8c0-2.7-.2-4.7-1.8-5.3v-.2c2.1-.9,5.9-2.8,8.3-4.2V28.7c-2.1,1.2-5.7,3.6-7.5,5,2.1,1.4,5.1,2.2,8.3,2.2s1.6,0,2.8-.2V9.3c-5.7-.5-11.9-2.9-16.6-2.9s-5.8,1.3-5.8,3.9,1.2,2.2,2,2.5l-.6,.4c-1.4-.6-3.2-2.2-3.2-5.4C154.5,3.1,158.3,0,163.4,0s13.6,3.7,19.8,3.7,3.7-1,4.6-2.9l.4,.3h0Z"/>
      <path id="path1672" class="cls-1" d="M297,22.4c-.8-1.2-3.4-5-4.5-6.8l-.4,.3v9.8l4.9-3.3Zm5.3-2.8c-3.3,2-7.3,4.7-10.3,6.8v5.6c1.3,.6,3.6,2,4.7,2.7l2.7-2.8,.4,.3-6.3,6.5c-2-1.4-5.8-3.9-8.5-5.3h0c.9-.4,1.4-1.6,1.4-4.4v-10.8c3.7-1.7,7.2-4,10-6.3l6.1,7.7h0Z"/>
      <path id="path1674" class="cls-1" d="M229.6,35.1V18.3l-3.2-2.2-1.9,1.8v14.2l4.3,3.3,.8-.4h0Zm7.1-18c-1,.4-1.2,1.6-1.2,4.5v11.2c-2.5,.9-7.9,3.7-10.5,6.1-1.9-1.3-5-3.4-7.5-4.9h0c1.2-.8,1.3-1.8,1.3-5.1V4.9c0-1.8-.3-2.7-.7-3.4h.2c.8,.6,1.4,1.4,1.6,2.6h0c1.3-2.1,2.9-3.5,6-3.9v.2c-.8,1.1-1.4,2-1.4,4.1v12.7l4.9-5.2c1.5,1.3,5.3,3.7,7.2,4.9h0Z"/>
    </g>
  </g>
</svg>