<?xml version="1.0" encoding="UTF-8"?>
<svg id="Layer_1" data-name="Layer 1" xmlns="http://www.w3.org/2000/svg" viewBox="0 0 272 88">
  <defs>
    <style>
      .cls-1 {
        fill: #313133;
      }
    </style>
  </defs>
  <path class="cls-1" d="M86.1,1c-17.6,1.6-6.5,25.4,6.7,14.5v-7h-8c.2,1.8-.9,3.7,2.1,3.3,6.1,.1-1.7,6.1-5.3,.2-1.1-2.4-.2-5.7,1.8-6.8,4.2-2.2,5.1,2.7,7.8,.7,.9-.5,1.6-1,1.6-1.2-.6-1.5-4.4-4.1-6.7-3.7h0Zm30.4,0c-2.8-.1-2.7,4.3-.2,4.3-.5,.8-2.8,2.2-1.2,2.7,3.3,2.2,5.2-7.5,1.3-7h0Zm-107.2,0C2.5,.9-.6,8.3,1.6,13.6c2.5,5.7,12.7,6.3,14.8,.5-3.7-4.4-5.4,3.3-9.8-.6-4.8-3.4,.9-11.8,5.5-7.5,1,1.1,1.1,1.1,2.7,.4,4.6-1.8-3.1-5.7-5.6-5.2h0Zm118.3,0c-7.7-.2-8.4,9.4-.7,10.3,8.1,2.1-.3,5.2-4.2,1-.5,.8-1.5,2.4-2.1,3.1,4.2,4.8,16,3.4,13.6-4.6-.4-3.1-9.5-3.1-8.7-5.6,.5-.7,3.3-.6,5.1,.3,1.6,.8,1.7,.8,2.6-.4,2.8-3-3.2-4.1-5.6-4.1h0Zm94.9,0c-9.4-.4-12,13.5-3.2,16.6,13,4.7,16.6-16.5,3.2-16.6h0Zm-170.1,0c-18.7,1.5-4.6,27.3,6.7,13.1-.7-.8-3.4-2.6-4.4-.7-2.7,2.7-7.3,.3-7.3-3.8,0-4,4.2-6.5,7.3-3.8,1.2,1.1,1.4,1.1,2.8,.4,4.2-1.8-2.8-5.5-5.2-5.2h0Zm51.6,0c-14.7,0-9.3,22.7,4.2,16,6.9-3.7,4.3-16.6-4.2-16h0ZM18.8,1.5V17.9h3.7v-6.6h7v6.6h4.2V1.5h-4.2V7.6h-7V1.5c-.9,0-2.8,0-3.7,0Zm18.3,0V17.9h3.7V1.5c-.9,0-2.8,0-3.7,0Zm119.6,0c-5.4,14.3-2.9,14.2-8.3,0-.8,0-4.8-.3-4.3,.6,.4,1.1,4.9,12.7,6.1,15.8h4.8c1.9-5,4.8-12.5,6.3-16.4-1.1,0-3.4,0-4.6,0Zm6.4,0V17.9h11.7v-3.3h-8v-3.3h8v-3.7h-8v-2.8h8V1.5h-11.7Zm14.5,0V17.9h3.7c.2-1.4-.6-6.3,1.1-5.6,1.3-.5,3.3,4.2,4.1,5.6h4.7c-.8-1.5-2.6-4.6-3.4-6.1,2.4-1.6,4.1-4.2,2.7-7.2-.3-4-8.8-3-13-3.1Zm16.1,0c-5.8-1.1,5.7,9.1,4,13.2,0,0,0,3.2,0,3.2h3.7c-.9-7.6,2.8-10.2,6.1-16.2-5.3-1.6-5.4,2.3-8,5.4-1.2-1-3.4-6.7-5.9-5.6Zm40,0c-1.7,0-2.3,.2-2.1,.6,1.1,3.7,3.4,11.9,4.6,15.8h4.1c3-10.6,2-12.9,5.1-.2,1.1,0,3.2,.2,4.3,.3,.9-3.1,4.3-14.7,4.4-15.9,0-.8-3.3-.5-4.1-.6-.6,2.6-2,7.9-2.6,10.5-.7-2.6-2.1-7.9-2.8-10.5-4.8-.9-3.4,3.8-5.9,9.6-.5-.2-2.1-7.9-2.5-9.6,0,0-2.3,0-2.3,0Zm22.6,0V17.9h3.7c0-2.4,.2-7.2,.3-9.5,1.9,2.3,7.1,10.8,8.8,9.5,0,0,1.8,0,1.8,0V1.5h-3.7c0,2.2-.2,6.8-.3,9-2-2.4-6.5-10.3-8.5-9,0,0-2,0-2,0h0Zm-190.5,.2c-1.2,3-5.7,14.4-5.9,15.6,.3,.9,4.9,1,4.7-.8,.5-1.4,.6-1.4,3.7-1.4s3.2,0,3.7,1.4c-.2,1.8,4.4,1.8,4.7,.8-.2-1.1-4.7-12.5-5.9-15.6h-5.1Zm156.4,3c3.7-.5,6.4,5.8,3.2,8.5-6.8,5.8-11.3-7.9-3.2-8.5h0Zm-118.7,0c5.1-.4,6,7.3,2.1,9.3-6.9,3.3-9.5-9.5-2.1-9.3Zm77.8,0c7.9-.6,7.3,4.7,0,3.7v-3.7Zm-113,1.9c.3,0,1.9,4,1.9,4.8,0,.2-.8,.4-1.9,.4s-1.9-.2-1.9-.4c0-.8,1.5-4.8,1.8-4.8Zm47.1,14.6c-23.2-.8-38.2,23.1-31,44.3,6.8,23.7,42.3,28.8,58,10.4v-24.2h-30.5v10.3h19.2c-.3,5.7,1.8,10.1-5.1,12.4-22.8,11.9-42-19.2-25.2-36.5,8.9-9.2,24.2-7.9,31.7,2.2,1.9-1.1,8.8-4.8,9.2-5.6-3.9-7.3-16.4-14.3-26.4-13.2Zm-76.9,.9c-2.3,8.4-12,45-12.8,46.9-.8-1.9-9.9-38.2-12-46.6-2.1,0-13.4-.6-12.8,.3,.7,3.1,14.7,51.6,18,63.2h12.3c2.2-8.3,11.1-42.6,11.9-44.9,.4-.8,12,44,11.9,43.3,0,0,.4,1.5,.4,1.5,3.1,0,9.3,0,12.4,0,3.3-11.6,17-60.1,17.9-63.2,.8-.9-10.9-.5-12.9-.6-2.2,8.7-11,44.4-11.8,46.7-1-1.4-10.7-38.6-12.9-46.7h-9.5s0,0,0,0Zm108.6,0v63.7h11.7c0-11.3,.2-33.9,.2-45.2,8.1,11.3,24.3,33.9,32.3,45.2h11V22.1h-11.2c0,11-.2,33.1-.2,44.1-7.9-11-23.9-33.1-31.8-44.1h-12.1Zm60,0v63.8c5.3,0,16-.2,21.2-.3,2.3-4.1,12.1-21.4,12.4-22.5,0,0-1,0-2,.3-11.1,2-19.8-5.6-18.9-18.5-.9-12.2,3.9-19,14.2-22.8-6.7,0-20.2,0-27,0h0Zm63.7,0c-6.5,0-19.5,0-26,0,28,11.4,6.8,42.8-3.3,62.9-3.1,1.5,25.1,.6,29.3,.8V22.1h0Zm-31.6,10.5c-6,.5-7.6,2.6-7.7,10.1-.2,6.5,.6,9.2,3.3,10.8,7,2.6,12.7,.2,11.9-10.1,0-7.9-1.2-10.3-7.5-10.8h0Z"/>
</svg>