<?xml version="1.0" encoding="utf-8"?>
<!-- Generator: Adobe Illustrator 26.4.1, SVG Export Plug-In . SVG Version: 6.00 Build 0)  -->
<svg version="1.1" id="Layer_1" xmlns="http://www.w3.org/2000/svg" xmlns:xlink="http://www.w3.org/1999/xlink" x="0px" y="0px"
	 viewBox="0 0 676 131" style="enable-background:new 0 0 676 131;" xml:space="preserve">
<style type="text/css">
	.st0{fill-rule:evenodd;clip-rule:evenodd;fill:#313133;}
	.st1{filter:url(#Adobe_OpacityMaskFilter);}
	.st2{fill-rule:evenodd;clip-rule:evenodd;fill:#FFFFFF;}
	.st3{mask:url(#mask-2_00000147928814852613040620000007544804115534128271_);fill-rule:evenodd;clip-rule:evenodd;fill:#313133;}
	.st4{filter:url(#Adobe_OpacityMaskFilter_00000165206163479740530080000009551216045295012538_);}
	.st5{mask:url(#mask-2_00000025411854488639621530000010352324052486066567_);fill-rule:evenodd;clip-rule:evenodd;fill:#313133;}
	.st6{filter:url(#Adobe_OpacityMaskFilter_00000057851787975349467350000016792704409457426073_);}
	.st7{mask:url(#mask-4_00000129207156373125388550000013361562266276336796_);fill-rule:evenodd;clip-rule:evenodd;fill:#313133;}
	.st8{filter:url(#Adobe_OpacityMaskFilter_00000063628380448926345800000001321523551884044184_);}
	.st9{mask:url(#mask-4_00000044876509420882172660000000013883016248263059_);fill-rule:evenodd;clip-rule:evenodd;fill:#313133;}
</style>
<path id="Fill-1" class="st0" d="M150.1,62c-0.2-0.7-0.6-1.1-1.1-1.4c-0.6-0.3-1.8-0.5-3-0.5c-5.4,0-9,3.3-9,8.6
	c0,5.2,3.8,8.6,8.7,8.6c1.1,0,2.2-0.2,2.9-0.5c0.6-0.3,1-0.6,1.3-1.4h0.3c0,1.2,0,2.5,0,3.4c-0.4,0.1-1.1,0.3-1.7,0.4
	c-1,0.2-1.9,0.3-3,0.3c-6.3,0-11.3-4.1-11.3-10.9c0-6.8,5.2-10.8,11.7-10.8c1,0,1.8,0.1,2.5,0.1c0.6,0.1,1.5,0.2,2.1,0.3
	c-0.1,1.3-0.1,2.3-0.2,3.6H150.1"/>
<path id="Fill-2" class="st0" d="M167,64.1c0-2.4-1.6-3.9-4.3-3.9c-0.5,0-1.1,0-1.4,0.1v8.1c0.3,0,0.6,0,1.1,0c1,0,1.9-0.2,2.6-0.6
	C166,67.2,167,66,167,64.1L167,64.1z M158.8,66.3c0-6.9,0-7.8-1.1-7.8v-0.3c0.7,0,1.3,0,2.1,0c0.7,0,1.8-0.1,2.5-0.1
	c1.4,0,2.7,0.2,3.7,0.6c1.6,0.6,3.5,2.2,3.5,5.3c0,2.6-1.4,4.2-2.5,5c-0.6,0.4-1.3,0.8-1.9,1v0c0.6,0.8,1.2,1.7,5.2,7
	c0.7,1,1.6,1.9,2.3,2v0.3c-0.6,0-1.1,0-1.8,0c-0.5,0-0.8,0-1.2,0c-0.4,0-0.7-0.1-1-0.4c-1.7-2.4-3.5-5.1-6-8.5c-0.5,0-1.1,0-1.4,0
	v1.1c0,6.5,0,7.3,1.1,7.4v0.3c-0.6,0-1.4,0-2.3,0c-1,0-1.7,0-2.4,0v-0.3c1.1-0.1,1.1-0.9,1.1-8.3V66.3L158.8,66.3z"/>
<path id="Fill-3" class="st0" d="M195.6,68.6c0-4.8-3.5-8.5-8.1-8.5c-4.6,0-8.1,3.7-8.1,8.6c0,4.9,3.5,8.6,8.1,8.6
	C192.1,77.3,195.6,73.7,195.6,68.6L195.6,68.6z M198.3,68.5c0,6.2-4.6,11-11,11c-6,0-10.7-4.7-10.7-10.7c0-6.3,4.8-10.9,11.1-10.9
	C193.8,57.9,198.3,62.4,198.3,68.5L198.3,68.5L198.3,68.5z"/>
<path id="Fill-4" class="st0" d="M223.2,79.7h-0.4c-5-12.6-5.7-14.5-6.2-16.1h0c-0.5,1.6-1.3,3.5-6.4,16.1h-0.4L206,66.1
	c-1.9-6.7-2-7.5-3-7.6v-0.3c0.6,0,1.4,0,2.3,0c1,0,1.7,0,2.6,0v0.3c-1.4,0.1-1.2,0.9,0.4,6.7c1.3,4.8,1.7,6.3,2.2,8.4h0
	c0.6-1.8,1.1-3.1,3.1-8.2c0.8-1.9,1.8-4.3,2.8-6.8h0.4c1,2.5,2,4.9,2.8,6.9c1.9,5,2.4,6.4,3,8.1h0c0.5-2.1,0.9-3.9,2.1-8.2
	c1.5-5.8,1.8-6.7,0.4-6.8v-0.4c0.9,0,1.6,0,2.6,0c1,0,1.5,0,2.1,0v0.4c-0.9,0.1-1.1,0.9-2.9,7.6L223.2,79.7"/>
<path id="Fill-5" class="st0" d="M252.7,79.5h-0.4c-5.2-6-8.2-9.6-10.1-11.8c-1.2-1.4-2.1-2.5-3.5-4.2h0c0,1,0,2.1,0,7.1
	c0,7.3,0,8.2,1.2,8.3v0.3c-0.7,0-1.5,0-2.4,0c-1,0-1.5,0-2.2,0v-0.3c1.2-0.1,1.2-1,1.2-8.4V57.9h0.4c5.3,6.2,8.4,9.9,10.3,12.1
	c1.2,1.4,2,2.4,3.3,4h0.1c0-1.1,0-2.1,0-7.7c0-6.9,0-7.7-1.2-7.8v-0.3c0.6,0,1.5,0,2.3,0c0.9,0,1.6,0,2.2,0v0.3c-1,0.1-1,1-1,7.9
	V79.5"/>
<path id="Fill-6" class="st0" d="M282.2,61.6c-0.1-1.1-0.9-1.3-2.7-1.3h-4.2v7.5h3.7c1.9,0,2.4,0,2.7-0.7h0.3c0,0.6-0.1,1.2-0.1,1.7
	c0,0.7,0,1.2,0.1,1.9h-0.3c-0.2-0.8-0.7-0.8-2.6-0.8h-3.7v1.6c0,6.5,0,7.2,1.2,7.4v0.4c-0.7,0-1.5,0-2.4,0c-0.9,0-1.7,0-2.4,0v-0.4
	c1.1-0.1,1.1-0.9,1.1-8.3v-4.2c0-6.9,0-7.6-1-7.8v-0.4c0.7,0,2.7,0,5.1,0c2.2,0,4.5,0,5.9,0c-0.1,1.3-0.1,2.3-0.1,3.4H282.2"/>
<path id="Fill-7" class="st0" d="M299.2,71.2L299.2,71.2c-2.4-6.6-2.7-7.3-2.9-8.1h0c-0.2,0.7-0.5,1.5-3.1,8l0,0.1H299.2z
	 M292.3,73.2c-1.9,4.8-2.2,5.6-1.1,5.7v0.3c-0.7,0-1.5,0-2.4,0c-1,0-1.7,0-2.2,0v-0.3c0.8-0.1,1.2-0.9,4.3-8.4l5.2-12.7h0.4l5,12.7
	c3,7.4,3.3,8.3,4.1,8.3v0.3c-0.4,0-1.1,0-2.2,0c-0.9,0-1.9,0-2.6,0v-0.3c1.1-0.1,0.8-0.9-1.1-5.7H292.3L292.3,73.2z"/>
<path id="Fill-8" class="st0" d="M313.6,58h0.4c7,13.9,7.5,14.8,8.3,16.6h0c0.7-1.7,1.2-2.7,8.5-16.6h0.4l1.4,12.6
	c0.8,7.4,1,8.3,2,8.3v0.3c-0.6,0-1.4,0-2.2,0c-1,0-1.9,0-2.6,0v-0.3c1.3-0.1,1.2-1,0.5-7.1c-0.5-4.1-0.6-5.6-0.7-7.2h0
	c-1,2.2-1.8,3.8-3.4,7c-0.9,1.7-2.1,4.1-3.8,7.2h-0.4c-1.6-3.1-2.9-5.5-3.7-7.2c-1.5-3.2-2.4-4.9-3.3-7h0c-0.1,1.6-0.2,3.2-0.7,7.3
	c-0.7,6.1-0.8,7,0.5,7.1v0.3c-0.7,0-1.6,0-2.5,0c-0.9,0-1.6,0-2.2,0v-0.3c1-0.1,1.2-0.9,2.1-8.3L313.6,58"/>
<path id="Fill-9" class="st0" d="M344.5,70.6c0,7.4,0,8.2,1.2,8.3v0.3c-0.7,0-1.5,0-2.5,0c-1.1,0-1.8,0-2.5,0v-0.4
	c1.2-0.1,1.2-0.9,1.2-8.3v-4.2c0-6.9,0-7.7-1.1-7.8v-0.4c0.6,0,1.4,0,2.4,0c0.9,0,1.8,0,2.4,0v0.4c-1.1,0.1-1.1,0.9-1.1,7.8V70.6"/>
<path id="Fill-10" class="st0" d="M354.8,66.3c0-6.9,0-7.7-1.1-7.8v-0.4c0.6,0,1.4,0,2.4,0c0.9,0,1.8,0,2.4,0v0.4
	c-1.1,0.2-1.1,0.9-1.1,7.8v4.1v6.2c0,0.3,0.1,0.4,0.4,0.4h4.8c0.7,0,1.2-0.1,1.6-0.3c0.3-0.2,0.6-0.5,0.6-1h0.3
	c0,1.3-0.1,2.1-0.1,3.5c-1.5,0-3.8,0-5.8,0c-2.6,0-4.9,0-5.5,0v-0.4c1.2-0.1,1.2-0.9,1.2-8.3V66.3"/>
<path id="Fill-11" class="st0" d="M377.3,70.7v1c0,6.3,0,7.2,1.2,7.3v0.3c-0.6,0-1.5,0-2.4,0c-1.1,0-2,0-2.5,0v-0.4
	c1.2-0.1,1.2-1,1.2-7.2v-0.8l-2.3-4.5c-3.8-7.1-4.1-7.8-5-7.9v-0.3c0.3,0,1.2,0,2.2,0c0.9,0,1.9,0,2.7,0v0.3
	c-1.2,0.1-0.8,0.9,1.3,5.1c1.1,2.2,1.9,3.6,2.4,4.7h0.1c0.5-1.1,1.2-2.4,2.4-4.6c2.2-4.2,2.6-5.1,1.4-5.2v-0.3c0.8,0,1.7,0,2.6,0
	c0.9,0,1.6,0,2,0v0.3c-0.8,0.1-1.1,0.8-5,7.9L377.3,70.7"/>
<path id="Fill-12" class="st0" d="M409.1,64.4c0-1.6-0.8-3-2.2-3.7c-0.7-0.4-1.7-0.5-2.7-0.5c-0.4,0-0.9,0-1.3,0.1V69
	c0.3,0,0.8,0,1.2,0c0.9,0,1.8-0.2,2.5-0.5c0.7-0.3,1.4-0.8,1.8-1.5C408.9,66.4,409.1,65.5,409.1,64.4L409.1,64.4z M400.5,66.3
	c0-6.9,0-7.6-1.1-7.8v-0.3c0.8,0,1.6,0,2.3-0.1c0.9,0,1.8-0.1,2.7,0c1.4,0,2.8,0.2,3.8,0.7c2.1,0.9,3.5,2.8,3.5,5.6
	c0,1.2-0.3,2.3-0.8,3.2c-0.5,0.9-1.2,1.7-2.1,2.2c-0.9,0.6-1.9,0.9-3.1,1.1c-0.9,0.2-1.9,0.2-2.9,0.2v1c0,5.9,0,6.6,1.1,6.8v0.3
	c-0.8,0-1.5,0-2.4,0c-1,0-1.7,0-2.3,0v-0.3c1.1-0.2,1.1-0.9,1.1-8.3V66.3L400.5,66.3z"/>
<path id="Fill-13" class="st0" d="M435.5,70.6c0,7.4,0,8.2,1.2,8.3v0.3c-0.6,0-1.5,0-2.4,0c-1,0-1.9,0-2.6,0v-0.3
	c1.2-0.1,1.2-0.9,1.2-7.8v-1.5h-10.7v1.5c0,6.9,0,7.7,1.2,7.8v0.3c-0.7,0-1.5,0-2.4,0c-1,0-1.9,0-2.5,0v-0.3
	c1.2-0.1,1.2-0.9,1.2-8.3v-4.2c0-6.9,0-7.8-1.1-7.9v-0.3c0.5,0,1.5,0,2.4,0c1,0,1.8,0,2.3,0v0.3c-1.1,0.1-1.1,0.9-1.1,7.5v1.4H433
	V66c0-6.6,0-7.4-1.1-7.5v-0.3c0.6,0,1.4,0,2.3,0c0.9,0,1.7,0,2.3,0v0.3c-1,0.1-1,0.9-1,7.9V70.6"/>
<path id="Fill-14" class="st0" d="M448.4,70.6c0,7.4,0,8.2,1.2,8.3v0.3c-0.7,0-1.5,0-2.5,0c-1.1,0-1.8,0-2.5,0v-0.4
	c1.2-0.1,1.2-0.9,1.2-8.3v-4.2c0-6.9,0-7.7-1.1-7.8v-0.4c0.6,0,1.4,0,2.4,0c0.9,0,1.8,0,2.4,0v0.4c-1.1,0.1-1.1,0.9-1.1,7.8V70.6"/>
<path id="Fill-15" class="st0" d="M458.7,66.3c0-6.9,0-7.7-1.1-7.8v-0.4c0.6,0,1.4,0,2.4,0c0.9,0,1.8,0,2.4,0v0.4
	c-1.1,0.2-1.1,0.9-1.1,7.8v4.1v6.2c0,0.3,0.1,0.4,0.4,0.4h4.8c0.7,0,1.2-0.1,1.6-0.3c0.3-0.2,0.6-0.5,0.6-1h0.3
	c0,1.3-0.1,2.1-0.1,3.5c-1.5,0-3.8,0-5.8,0c-2.6,0-4.9,0-5.5,0v-0.4c1.2-0.1,1.2-0.9,1.2-8.3V66.3"/>
<path id="Fill-16" class="st0" d="M486,71.2L486,71.2c-2.4-6.6-2.7-7.3-2.9-8.1h0c-0.2,0.7-0.5,1.5-3.1,8l0,0.1H486z M479.2,73.2
	c-1.9,4.8-2.2,5.6-1.1,5.7v0.3c-0.7,0-1.5,0-2.4,0c-1,0-1.7,0-2.2,0v-0.3c0.8-0.1,1.2-0.9,4.3-8.4l5.2-12.7h0.4l5,12.7
	c2.9,7.4,3.3,8.3,4.1,8.3v0.3c-0.4,0-1.1,0-2.2,0c-0.9,0-1.9,0-2.6,0v-0.3c1.1-0.1,0.8-0.9-1.1-5.7H479.2L479.2,73.2z"/>
<path id="Fill-17" class="st0" d="M515.3,79.5h-0.4c-5.2-6-8.2-9.6-10.1-11.8c-1.2-1.4-2.1-2.5-3.5-4.2h0c0,1,0,2.1,0,7.1
	c0,7.3,0,8.2,1.2,8.3v0.3c-0.7,0-1.5,0-2.4,0c-1,0-1.5,0-2.2,0v-0.3c1.2-0.1,1.2-1,1.2-8.4V57.9h0.4c5.3,6.2,8.4,9.9,10.3,12.1
	c1.2,1.4,2,2.4,3.3,4h0.1c0-1.1,0-2.1,0-7.7c0-6.9,0-7.7-1.2-7.8v-0.3c0.6,0,1.5,0,2.3,0c0.9,0,1.6,0,2.2,0v0.3c-1,0.1-1,1-1,7.9
	V79.5"/>
<path id="Fill-18" class="st0" d="M528.9,60.2h-4.1c-1.5,0-2,0.3-2.2,1.4h-0.4c0-1.2,0-2.4,0-3.5c2.2,0,4.8,0,6.7,0h2.3
	c2.2,0,4.8,0,6.8,0c0,1.1,0,2.3,0,3.5h-0.4c-0.2-1.2-0.8-1.4-2.2-1.4h-4.1v10.3c0,7.4,0,8.3,1.2,8.3v0.3c-0.7,0-1.5,0-2.4,0
	c-1,0-1.9,0-2.5,0v-0.4c1.2-0.1,1.2-0.9,1.2-8.3V60.2"/>
<path id="Fill-19" class="st0" d="M560.9,70.6c0,7.4,0,8.2,1.2,8.3v0.3c-0.6,0-1.5,0-2.4,0c-1,0-1.9,0-2.6,0v-0.3
	c1.2-0.1,1.2-0.9,1.2-7.8v-1.5h-10.7v1.5c0,6.9,0,7.7,1.2,7.8v0.3c-0.7,0-1.5,0-2.4,0c-1,0-1.9,0-2.5,0v-0.3
	c1.2-0.1,1.2-0.9,1.2-8.3v-4.2c0-6.9,0-7.8-1.1-7.9v-0.3c0.5,0,1.5,0,2.4,0c1,0,1.8,0,2.3,0v0.3c-1.1,0.1-1.1,0.9-1.1,7.5v1.4h10.7
	V66c0-6.6,0-7.4-1.1-7.5v-0.3c0.6,0,1.4,0,2.3,0c0.9,0,1.7,0,2.3,0v0.3c-1,0.1-1,0.9-1,7.9V70.6"/>
<path id="Fill-20" class="st0" d="M579.4,64.1c0-2.4-1.6-3.9-4.3-3.9c-0.5,0-1.1,0-1.4,0.1v8.1c0.3,0,0.6,0,1.1,0
	c1,0,1.9-0.2,2.6-0.6C578.4,67.2,579.4,66,579.4,64.1L579.4,64.1z M571.3,66.3c0-6.9,0-7.8-1.1-7.8v-0.3c0.7,0,1.3,0,2.1,0
	c0.7,0,1.8-0.1,2.5-0.1c1.4,0,2.7,0.2,3.7,0.6c1.6,0.6,3.5,2.2,3.5,5.3c0,2.6-1.4,4.2-2.5,5c-0.6,0.4-1.3,0.8-1.9,1v0
	c0.6,0.8,1.2,1.7,5.2,7c0.7,1,1.6,1.9,2.3,2v0.3c-0.6,0-1.1,0-1.8,0c-0.5,0-0.8,0-1.2,0c-0.4,0-0.7-0.1-1-0.4
	c-1.7-2.4-3.5-5.1-6-8.5c-0.5,0-1.1,0-1.4,0v1.1c0,6.5,0,7.3,1.1,7.4v0.3c-0.6,0-1.4,0-2.3,0c-1,0-1.7,0-2.4,0v-0.3
	c1.1-0.1,1.1-0.9,1.1-8.3V66.3L571.3,66.3z"/>
<path id="Fill-21" class="st0" d="M607.4,68.6c0-4.8-3.5-8.5-8.1-8.5c-4.6,0-8.1,3.7-8.1,8.6c0,4.9,3.5,8.6,8.1,8.6
	C603.9,77.3,607.4,73.7,607.4,68.6L607.4,68.6z M610.1,68.5c0,6.2-4.6,11-11,11c-6,0-10.7-4.7-10.7-10.7c0-6.3,4.8-10.9,11.1-10.9
	C605.6,57.9,610.1,62.4,610.1,68.5L610.1,68.5L610.1,68.5z"/>
<path id="Fill-22" class="st0" d="M625.7,64.4c0-1.6-0.8-3-2.2-3.7c-0.7-0.4-1.7-0.5-2.7-0.5c-0.4,0-0.9,0-1.3,0.1V69
	c0.3,0,0.8,0,1.2,0c0.9,0,1.8-0.2,2.5-0.5c0.7-0.3,1.4-0.8,1.8-1.5C625.4,66.4,625.7,65.5,625.7,64.4L625.7,64.4z M617.1,66.3
	c0-6.9,0-7.6-1.1-7.8v-0.3c0.8,0,1.6,0,2.3-0.1c0.9,0,1.8-0.1,2.7,0c1.4,0,2.8,0.2,3.8,0.7c2.1,0.9,3.5,2.8,3.5,5.6
	c0,1.2-0.3,2.3-0.8,3.2c-0.5,0.9-1.2,1.7-2.1,2.2c-0.9,0.6-1.9,0.9-3.1,1.1c-0.9,0.2-1.9,0.2-2.9,0.2v1c0,5.9,0,6.6,1.1,6.8v0.3
	c-0.8,0-1.5,0-2.4,0c-1,0-1.7,0-2.3,0v-0.3c1.1-0.2,1.1-0.9,1.1-8.3V66.3L617.1,66.3z"/>
<path id="Fill-23" class="st0" d="M638.8,70.6c0,7.4,0,8.2,1.2,8.3v0.3c-0.7,0-1.5,0-2.5,0c-1.1,0-1.8,0-2.5,0v-0.4
	c1.2-0.1,1.2-0.9,1.2-8.3v-4.2c0-6.9,0-7.7-1.1-7.8v-0.4c0.6,0,1.4,0,2.4,0c0.9,0,1.8,0,2.4,0v0.4c-1.1,0.1-1.1,0.9-1.1,7.8V70.6"/>
<path id="Fill-24" class="st0" d="M648.5,66.3c0-6.9,0-7.8-1-7.9v-0.3c1,0,2.9,0,5.1,0c2.2,0,4.5,0,5.9,0c-0.1,1.1-0.1,2.3-0.1,3.4
	H658c-0.1-1.1-0.9-1.3-2.8-1.3H651v7.1h3.7c1.9,0,2.5,0,2.7-0.7h0.3c0,0.6-0.1,1.2-0.1,1.7c0,0.6,0,1.2,0.1,1.9h-0.3
	c-0.2-0.8-0.7-0.8-2.6-0.8H651v6.9c0,0.6,0,0.6,0.6,0.6c2,0,3.4,0,4.7,0c1.3,0,2-0.1,2.2-1.2h0.3c0,1-0.1,2.2-0.1,3.4
	c-1.6,0-3.8,0-5.9,0c-2.3,0-4.4,0-5.4,0v-0.3c1.1-0.1,1.1-0.9,1.1-8.3V66.3"/>
<path id="Fill-25" class="st0" d="M675.7,73.9c0,3-2.3,5.6-6.5,5.6c-1.4,0-2.9-0.3-3.8-0.7c0.1-1.2,0.1-2.2,0.2-3.6h0.3
	c0.1,0.8,0.5,1.3,1,1.6c0.6,0.3,1.4,0.5,2.3,0.5c2.1,0,3.8-1.3,3.8-3.3c0-1.3-0.5-2.2-1.7-3.3c-0.9-0.7-1.7-1.3-2.7-2.1
	c-1.9-1.5-2.9-3-2.9-5.2c0-3,2.3-5.5,6.2-5.5c1.1,0,2.3,0.2,3,0.4c-0.1,1.2-0.1,2.2-0.1,3.5h-0.3c-0.1-0.7-0.4-1.1-0.9-1.3
	c-0.4-0.2-1-0.4-1.7-0.4c-2.1,0-3.6,1.2-3.6,3.1c0,1.1,0.5,2,1.3,2.8c0.7,0.7,1.6,1.4,2.8,2.3C674.3,69.8,675.7,71.3,675.7,73.9
	L675.7,73.9"/>
<path id="Fill-26" class="st0" d="M59.8,55.5c12.2-19-2.1-6.9-0.2,0.4C59.6,55.8,59.8,55.6,59.8,55.5"/>
<path id="Fill-27" class="st0" d="M59.8,0.1l-0.1,24.3c0.4,0,0.5-0.4,0.8-0.4c4.8-4.2,10.6-8.1,16.2-11v-0.1c2-1.2,1.7,0.8,0.5,1.6
	c-5.6,3.4-11.4,7.3-15.9,11.7c-3-0.4-1.3,19.2-1.8,20.8c1.6-5.6,7.5-4.9,7.2-6.7c-0.4,0.1-0.8,0.3-1.2,0.4c4.3-7.5,8-15.4,12.7-22.7
	c0,10.5-11.8,19.1-11.5,29.6c1.4-1.3,7.9-17.8,9.1-11.5c-5.9,9.1-11.9,19.3-16,29.3c13.6,1.5,48.6-55.2,19.3-52.5
	c0.9-3.4,9.3-1.9,10.8,1.1c8,15.3-4.7,31.9-14.1,43.4h-0.1c-2.1,2.9-4.6,5.7-7.2,8.4l38.7,1.5l2.7-64.1L59.8,0.1"/>
<path id="Fill-28" class="st0" d="M30,66c0,0.6-0.4,1.7,0.1,2.2c6.1,0.4,12.6-1.6,18.9-1.4c7.2,0.9,9.3-6.4,8-12.2
	c-2.7,3.3-5.6,6.4-8.9,9.2c7.1-12.3,11.5-17.3,8.5-32.7C45.5,40.6,35.4,52.2,30,66"/>
<path id="Fill-29" class="st0" d="M25.2,68.1c4.1-17.4,20.4-28.6,31.2-41.7c0.7-7.7-0.3-15.6-0.2-23.4C38.3,3.7,20.4,4.4,2.5,5.2
	C3.3,26.8,4,48.4,4.8,70C11.4,69.1,18.9,69.7,25.2,68.1"/>
<g id="Group-33" transform="translate(0.000000, 68.000000)">
	<g id="Clip-31">
	</g>
	<defs>
		<filter id="Adobe_OpacityMaskFilter" filterUnits="userSpaceOnUse" x="29.5" y="0.4" width="23.7" height="12.5">
			<feColorMatrix  type="matrix" values="1 0 0 0 0  0 1 0 0 0  0 0 1 0 0  0 0 0 1 0"/>
		</filter>
	</defs>
	
		<mask maskUnits="userSpaceOnUse" x="29.5" y="0.4" width="23.7" height="12.5" id="mask-2_00000147928814852613040620000007544804115534128271_">
		<g class="st1">
			<polygon id="path-1_00000057869873483424353740000005371570591739816608_" class="st2" points="0.1,59.6 0.1,0.2 53.6,0.2 
				53.6,59.6 			"/>
		</g>
	</mask>
	<path id="Fill-30" class="st3" d="M34.2,10.5c17.6,6.6,13.3-1.6,19-10.1C46.9,1.7,18.5-0.6,34.2,10.5"/>
	<defs>
		
			<filter id="Adobe_OpacityMaskFilter_00000136407804561785986000000010977734310501967765_" filterUnits="userSpaceOnUse" x="0" y="3.2" width="54.1" height="56.3">
			<feColorMatrix  type="matrix" values="1 0 0 0 0  0 1 0 0 0  0 0 1 0 0  0 0 0 1 0"/>
		</filter>
	</defs>
	
		<mask maskUnits="userSpaceOnUse" x="0" y="3.2" width="54.1" height="56.3" id="mask-2_00000025411854488639621530000010352324052486066567_">
		<g style="filter:url(#Adobe_OpacityMaskFilter_00000136407804561785986000000010977734310501967765_);">
			<polygon id="path-1_00000031903484192345587690000003394087973272736441_" class="st2" points="0.1,59.6 0.1,0.2 53.6,0.2 
				53.6,59.6 			"/>
		</g>
	</mask>
	<path id="Fill-32" class="st5" d="M52.4,35.9c-9,0.1-18.2,4.3-26.8,6.6c-3.9,1.4-12.4,5.5-13.3-1.4c0,0,0.1,0,0.1,0
		c4.6-4.8,12.2-6.7,18-9.9c5.3-1.7,16.2-9.9,20.7-8.8c-9.8,5.7-19.6,11.5-29.5,17.2c10.5-2.9,21-5.8,31.8-7.3
		c-0.1-6-0.1-11.9-0.2-17.9c-10.3,2.6-26.4,1.9-28.3-11.1C16.7,4.2,8.4,5.1,0,6c0.6,17.9,1.1,35.7,1.7,53.6c17.3-1,34.6-2,51.8-3
		c0.2-6.5,1.2-14.3-0.1-20.7C53.1,35.7,52.8,35.8,52.4,35.9"/>
</g>
<path id="Fill-34" class="st0" d="M51.9,80.5c0.4-0.3,0.9-0.2,1.5-0.2l0-3.4C52.6,77.8,49.1,80.3,51.9,80.5"/>
<path id="Fill-35" class="st0" d="M44.9,92.1C44.9,92.1,44.9,92.1,44.9,92.1l0.1,0V92C45,92,44.9,92,44.9,92.1"/>
<g id="Group-39" transform="translate(55.000000, 68.000000)">
	<g id="Clip-37">
	</g>
	<defs>
		
			<filter id="Adobe_OpacityMaskFilter_00000137831747229918205560000004817271617283426189_" filterUnits="userSpaceOnUse" x="1.5" y="12.3" width="8.5" height="5.1">
			<feColorMatrix  type="matrix" values="1 0 0 0 0  0 1 0 0 0  0 0 1 0 0  0 0 0 1 0"/>
		</filter>
	</defs>
	
		<mask maskUnits="userSpaceOnUse" x="1.5" y="12.3" width="8.5" height="5.1" id="mask-4_00000129207156373125388550000013361562266276336796_">
		<g style="filter:url(#Adobe_OpacityMaskFilter_00000137831747229918205560000004817271617283426189_);">
			<polygon id="path-3_00000054244595308741084730000008845189508880604037_" class="st2" points="52.7,62.9 0.7,62.9 0.7,0.9 
				52.7,0.9 			"/>
		</g>
	</mask>
	<path id="Fill-36" class="st7" d="M2.9,16.7c2.4-1.4,4.9-2.8,7.1-4.4c-1.7,0.1-2.8,0.5-4.5,0.6V13c-1.1,0-2.4,0.6-3.6,0.8v0.1H1.6
		l-0.1,3.5C2.2,17.1,2.8,17.1,2.9,16.7"/>
	<defs>
		
			<filter id="Adobe_OpacityMaskFilter_00000121280902534993688680000011118251528794310586_" filterUnits="userSpaceOnUse" x="0.7" y="0.6" width="51.9" height="62.4">
			<feColorMatrix  type="matrix" values="1 0 0 0 0  0 1 0 0 0  0 0 1 0 0  0 0 0 1 0"/>
		</filter>
	</defs>
	
		<mask maskUnits="userSpaceOnUse" x="0.7" y="0.6" width="51.9" height="62.4" id="mask-4_00000044876509420882172660000000013883016248263059_">
		<g style="filter:url(#Adobe_OpacityMaskFilter_00000121280902534993688680000011118251528794310586_);">
			<polygon id="path-3_00000016769805510947066740000002461635200744916138_" class="st2" points="52.7,62.9 0.7,62.9 0.7,0.9 
				52.7,0.9 			"/>
		</g>
	</mask>
	<path id="Fill-38" class="st9" d="M47.5,0.9c-1.2,0.8-39.4-1.7-39.4,1C7.7,1.8,7.7,2.4,7.3,2.2v0.1H7.1v0.1C5.9,2.9,4.4,4,3.4,4.6
		H3.1c0,0,0,0.1,0,0.1c-1.6,1.1-1.8,4.8-1.4,6.8c6,0.1,12.4-2.2,18.3-3.7c0.8-0.2,3-1,3.5,0c0.1,3.7-5.5,2.6-7.8,4
		c-13.9,6.8-14.9,3.9-14.5,20c6.4-1.9,39-2.7,39.8,5.7c-1.7,3-7.9,0.2-9.9-0.5C22.8,34.6,9.1,33,1.2,35.9C0.8,43.5,1,51.4,0.7,59
		l51.9,4L47.5,0.9"/>
</g>
</svg>
