<?xml version="1.0" encoding="UTF-8" standalone="no"?>
<!-- Created with Inkscape (http://www.inkscape.org/) -->

<svg
   xmlns:dc="http://purl.org/dc/elements/1.1/"
   xmlns:cc="http://creativecommons.org/ns#"
   xmlns:rdf="http://www.w3.org/1999/02/22-rdf-syntax-ns#"
   xmlns:svg="http://www.w3.org/2000/svg"
   xmlns="http://www.w3.org/2000/svg"
   xmlns:sodipodi="http://sodipodi.sourceforge.net/DTD/sodipodi-0.dtd"
   xmlns:inkscape="http://www.inkscape.org/namespaces/inkscape"
   width="356.6972"
   height="23.286751"
   viewBox="0 0 94.376136 6.1612862"
   version="1.1"
   id="svg16942"
   inkscape:version="0.92.0 r15299"
   sodipodi:docname="jenner n block.svg">
  <defs
     id="defs16936">
    <clipPath
       id="clipPath12360"
       clipPathUnits="userSpaceOnUse">
      <path
         inkscape:connector-curvature="0"
         id="path12358"
         d="M 0,0 H 1354.5 V 3240 H 0 Z" />
    </clipPath>
    <clipPath
       id="clipPath12336"
       clipPathUnits="userSpaceOnUse">
      <path
         inkscape:connector-curvature="0"
         id="path12334"
         d="M 0,0 H 1354.5 V 3240 H 0 Z" />
    </clipPath>
    <clipPath
       id="clipPath12308"
       clipPathUnits="userSpaceOnUse">
      <path
         inkscape:connector-curvature="0"
         id="path12306"
         d="M 0,0 H 1354.5 V 3240 H 0 Z" />
    </clipPath>
  </defs>
  <sodipodi:namedview
     id="base"
     pagecolor="#ffffff"
     bordercolor="#666666"
     borderopacity="1.0"
     inkscape:pageopacity="0.0"
     inkscape:pageshadow="2"
     inkscape:zoom="2.5289175"
     inkscape:cx="177.34861"
     inkscape:cy="1.6123912"
     inkscape:document-units="mm"
     inkscape:current-layer="layer1"
     showgrid="false"
     fit-margin-top="0"
     fit-margin-left="0"
     fit-margin-right="0"
     fit-margin-bottom="0"
     units="px"
     inkscape:window-width="1280"
     inkscape:window-height="744"
     inkscape:window-x="-4"
     inkscape:window-y="-4"
     inkscape:window-maximized="1" />
  <metadata
     id="metadata16939">
    <rdf:RDF>
      <cc:Work
         rdf:about="">
        <dc:format>image/svg+xml</dc:format>
        <dc:type
           rdf:resource="http://purl.org/dc/dcmitype/StillImage" />
        <dc:title></dc:title>
      </cc:Work>
    </rdf:RDF>
  </metadata>
  <g
     inkscape:label="Layer 1"
     inkscape:groupmode="layer"
     id="layer1"
     transform="translate(-61.177698,-215.0357)">
    <g
       id="g17071"
       style="fill:#231f20;fill-opacity:1"
       transform="translate(0.26458169,-0.2645763)">
      <path
         d="m 65.685148,215.71334 h -0.805392 -0.08467 v 0.085 3.05964 c 0,0.58596 -0.07444,0.92322 -0.249414,1.12783 -0.179211,0.20885 -0.479072,0.29845 -1.003653,0.29845 -0.973667,0 -1.388886,-0.29704 -1.388886,-0.99272 v -0.54574 -0.0847 h -0.08502 -0.805745 -0.08467 v 0.0847 0.65687 c 0,1.20791 0.740481,1.79423 2.264481,1.79423 1.653469,0 2.32798,-0.60219 2.32798,-2.07857 v -3.31999 -0.085 z"
         style="fill:#231f20;fill-opacity:1;fill-rule:nonzero;stroke:none;stroke-width:0.35277778"
         id="path12312"
         inkscape:connector-curvature="0" />
      <path
         d="m 74.182365,220.12325 h -4.176183 v -1.46614 h 2.565752 0.08502 v -0.0847 -0.74295 -0.085 h -0.08502 -2.565752 v -1.11831 h 3.953227 0.08502 v -0.085 -0.75565 -0.0847 h -0.08502 -4.842933 -0.08502 v 0.0847 5.16679 0.0847 h 0.08502 5.065889 0.08502 v -0.0847 -0.74436 -0.0847 z"
         style="fill:#231f20;fill-opacity:1;fill-rule:nonzero;stroke:none;stroke-width:0.35277778"
         id="path12316"
         inkscape:connector-curvature="0" />
      <path
         d="m 81.577655,215.70069 h -0.793044 -0.08467 v 0.0847 3.40889 l -3.135136,-3.46569 -0.02505,-0.0279 h -0.03775 -0.420863 -0.08502 v 0.0847 5.16678 0.0847 h 0.08502 0.792691 0.08502 v -0.0847 -3.39796 l 3.135136,3.45511 0.0254,0.0275 h 0.03739 0.420864 0.08467 v -0.0847 -5.16678 -0.0847 z"
         style="fill:#231f20;fill-opacity:1;fill-rule:nonzero;stroke:none;stroke-width:0.35277778"
         id="path12320"
         inkscape:connector-curvature="0" />
      <path
         d="m 89.592281,215.70069 h -0.792692 -0.08467 v 0.0847 3.40889 l -3.135136,-3.46569 -0.0254,-0.0279 h -0.03775 -0.421216 -0.08502 v 0.0847 5.16678 0.0847 h 0.08502 0.793397 0.08467 v -0.0847 -3.39796 l 3.134783,3.45511 0.02505,0.0275 h 0.03739 0.421569 0.08502 v -0.0847 -5.16678 -0.0847 z"
         style="fill:#231f20;fill-opacity:1;fill-rule:nonzero;stroke:none;stroke-width:0.35277778"
         id="path12324"
         inkscape:connector-curvature="0" />
      <path
         d="m 98.164411,220.12325 h -4.176889 v -1.46614 H 96.55398 96.639 v -0.0847 -0.74295 -0.085 h -0.08502 -2.566458 v -1.11831 h 3.953581 0.08502 v -0.085 -0.75565 -0.0847 h -0.08502 -4.843286 -0.08502 v 0.0847 5.16679 0.0847 h 0.08502 5.066594 0.08502 v -0.0847 -0.74436 -0.0847 z"
         style="fill:#231f20;fill-opacity:1;fill-rule:nonzero;stroke:none;stroke-width:0.35277778"
         id="path12328"
         inkscape:connector-curvature="0" />
      <path
         d="m 106.53572,220.90701 -1.37477,-2.16888 c 0.72672,-0.16863 1.2259,-0.76729 1.2259,-1.50354 0,-0.9525 -0.66146,-1.52117 -1.76954,-1.52117 h -3.55458 -0.085 v 0.085 5.15373 0.0847 h 0.085 0.80468 0.085 v -0.0847 -2.17065 h 2.12372 l 1.43687,2.21686 0.025,0.0385 h 0.0459 0.87982 0.15417 z m -4.58329,-4.28096 v 0 h 2.66488 c 0.35137,0 0.76977,0.10548 0.76977,0.60854 0,0.41311 -0.25894,0.6223 -0.76977,0.6223 h -2.66488 z"
         style="fill:#231f20;fill-opacity:1;fill-rule:nonzero;stroke:none;stroke-width:0.35277778"
         id="path12340"
         inkscape:connector-curvature="0" />
      <path
         d="m 115.04264,220.85706 -0.86713,-1.00189 c 0.17569,-0.16404 0.32632,-0.3302 0.46144,-0.51858 l 0.0374,-0.0522 -0.0395,-0.0497 -0.41205,-0.52635 -0.0677,-0.0861 -0.0663,0.0871 c -0.15663,0.20532 -0.3108,0.36371 -0.44556,0.49918 l -2.34491,-2.76331 h 2.23696 0.15346 l -0.0815,-0.13017 -0.35419,-0.56515 -0.025,-0.0395 h -0.0469 -3.38702 -0.18309 l 0.11818,0.1397 1.34832,1.5942 c -1.02059,0.52916 -1.50142,1.15852 -1.50142,1.97661 0,1.06857 0.78704,1.7586 2.00589,1.7586 0.70838,0 1.30739,-0.24201 1.98967,-0.80045 l 0.5207,0.58949 0.0254,0.0286 h 0.0381 0.82267 0.18557 z m -4.61821,-1.46509 c 0,-0.55985 0.3937,-1.01635 1.16522,-1.35925 l 1.48767,1.74907 c -0.48613,0.41134 -0.99166,0.62654 -1.50495,0.62654 -0.68651,0 -1.14794,-0.40887 -1.14794,-1.01636"
         style="fill:#231f20;fill-opacity:1;fill-rule:nonzero;stroke:none;stroke-width:0.35277778"
         id="path12344"
         inkscape:connector-curvature="0" />
      <path
         d="m 122.0488,218.02355 v 0 c 0.28081,-0.21872 0.44132,-0.54681 0.44132,-0.94932 0,-0.62054 -0.29245,-1.36102 -1.68627,-1.36102 h -3.17042 -0.0847 v 0.085 5.15408 0.0847 h 0.0847 3.33199 c 1.17016,0 1.89653,-0.62618 1.89653,-1.63442 0,-0.57362 -0.28681,-1.04458 -0.81315,-1.37901 m -3.52531,-1.39735 v 0 h 2.25637 c 0.62935,0 0.71049,0.27869 0.71049,0.52176 0,0.35136 -0.22824,0.52211 -0.69814,0.52211 h -2.26872 z m 2.52765,3.49708 h -2.52765 v -1.52752 h 2.52765 c 0.26529,0 0.47026,0.0681 0.60925,0.20214 0.13476,0.12982 0.20285,0.31679 0.20285,0.55597 0,0.49636 -0.28822,0.76941 -0.8121,0.76941"
         style="fill:#231f20;fill-opacity:1;fill-rule:nonzero;stroke:none;stroke-width:0.35277778"
         id="path12348"
         inkscape:connector-curvature="0" />
      <path
         d="m 130.74118,220.12325 h -3.75497 v -4.33776 -0.0847 h -0.0847 -0.80504 -0.0847 v 0.0847 5.16679 0.0847 h 0.0847 4.64467 0.0847 v -0.0847 -0.74436 -0.0847 z"
         style="fill:#231f20;fill-opacity:1;fill-rule:nonzero;stroke:none;stroke-width:0.35277778"
         id="path12352"
         inkscape:connector-curvature="0" />
      <path
         d="m 135.87519,215.56486 c -1.87925,0 -3.24344,1.18181 -3.24344,2.80952 0,1.63583 1.36419,2.82258 3.24344,2.82258 1.88701,0 3.25684,-1.18675 3.25684,-2.82258 0,-1.65417 -1.33914,-2.80952 -3.25684,-2.80952 m 0,4.70711 c -1.3208,0 -2.24367,-0.78069 -2.24367,-1.89759 0,-1.11689 0.92287,-1.89724 2.24367,-1.89724 1.30775,0 2.25707,0.79799 2.25707,1.89724 0,1.1169 -0.92816,1.89759 -2.25707,1.89759"
         style="fill:#231f20;fill-opacity:1;fill-rule:nonzero;stroke:none;stroke-width:0.35277778"
         id="path12364"
         inkscape:connector-curvature="0" />
      <path
         d="m 147.23372,219.61877 -0.64523,-0.44697 -0.0691,-0.048 -0.0483,0.0688 c -0.51752,0.7366 -1.17616,1.0795 -2.07362,1.0795 -1.25801,0 -2.20698,-0.81597 -2.20698,-1.89759 0,-1.09961 0.92851,-1.89724 2.20698,-1.89724 0.83784,0 1.52682,0.31292 1.94063,0.88195 l 0.0487,0.067 0.0684,-0.0473 0.64206,-0.44555 0.0709,-0.0494 -0.0504,-0.0699 c -0.57503,-0.79411 -1.56669,-1.24919 -2.72027,-1.24919 -1.85773,0 -3.2064,1.1871 -3.2064,2.82293 0,1.62771 1.34867,2.80917 3.2064,2.80917 1.24389,0 2.25883,-0.51929 2.85926,-1.46332 l 0.0437,-0.0688 z"
         style="fill:#231f20;fill-opacity:1;fill-rule:nonzero;stroke:none;stroke-width:0.35277778"
         id="path12368"
         inkscape:connector-curvature="0" />
      <path
         d="m 154.92272,220.90141 -2.44087,-3.2572 2.10538,-1.78117 0.17709,-0.14958 h -0.23142 -1.06609 -0.0307 l -0.0236,0.0198 -2.59856,2.17452 v -2.10961 -0.0847 h -0.0847 -0.80645 -0.0847 v 0.0847 5.15408 0.0847 h 0.0847 0.80645 0.0847 v -0.0847 -1.90606 l 0.96767,-0.82091 2.10114,2.77812 0.0254,0.0335 h 0.0423 0.90453 0.16968 z"
         style="fill:#231f20;fill-opacity:1;fill-rule:nonzero;stroke:none;stroke-width:0.35277778"
         id="path12372"
         inkscape:connector-curvature="0" />
    </g>
  </g>
</svg>
