<?xml version="1.0" encoding="utf-8"?>
<!-- Generator: Adobe Illustrator 26.4.1, SVG Export Plug-In . SVG Version: 6.00 Build 0)  -->
<svg version="1.1" id="Layer_1" xmlns:ev="http://www.w3.org/2001/xml-events"
	 xmlns="http://www.w3.org/2000/svg" xmlns:xlink="http://www.w3.org/1999/xlink" x="0px" y="0px" viewBox="0 0 141 69"
	 style="enable-background:new 0 0 141 69;" xml:space="preserve">
<style type="text/css">
	.st0{fill:#313133;}
</style>
<g>
	<path class="st0" d="M34.5,31.1c-1.3,0.1-1.3-0.8-1.3-1.9c0,0,0-9.8,0-9.8c0-1-0.2-2,1.1-1.8c0.9,0,0.9-1.1-0.1-0.9
		c0,0-2.6,0-2.6,0c-0.2,0-0.6,0-0.7,0.4l-4.8,11l-4.2-10.6c-0.1-0.3-0.2-0.8-0.7-0.8h-2.8c-0.3,0-0.8-0.1-0.8,0.4
		c0.2,1.1,2-0.1,1.9,1.2c0,0.1,0,0.3,0,0.5l-0.7,10.5c-0.1,1.2-0.1,1.7-1.4,1.7c-0.2,0-0.7,0-0.7,0.4c0,0.1,0.1,0.3,0.2,0.3
		c0.8,0.2,1.6-0.1,2.4,0c0.8,0,1.7,0.2,2.5,0.1c0.1,0,0.3-0.2,0.3-0.4c0-0.4-0.5-0.4-0.8-0.4c-1.7,0.1-1.6-1.3-1.6-2.5
		c0,0,0.7-9.7,0.7-9.7l4.6,12c0.1,0.6,0.8,0.7,0.9,0c0,0,5.2-12.3,5.2-12.3v10.6c0.1,1.2-0.2,1.9-1.5,1.9c-0.8-0.1-1,0.9-0.1,0.8
		c1.7-0.1,3.4-0.1,5.1,0c0.2,0,0.6,0,0.6-0.4C35.1,31.1,34.7,31.1,34.5,31.1z"/>
	<path class="st0" d="M40.3,27.4c0.1,0,2.3-1.2,2.4-1.2c0.1,0.3,0,1.6,0.1,2c0,0.8,0,1.1-0.6,1.7C39.4,32.5,36.5,29.1,40.3,27.4z
		 M46.4,30.1c-0.2,0-0.3,0.2-0.4,0.3c-1.1,1-1.5-0.6-1.4-1.5c0,0,0-5.6,0-5.6c0-0.7,0.1-1.3-0.5-1.8c-2-1.4-4.9-0.4-6.6,1
		c-1.1,0.9-1.8,3,0.5,1.9c0.4-0.2,0.6-0.6,0.7-0.9c0.6-1.2,1.2-1.9,2.6-1.9c1.4,0,1.4,0.8,1.4,2v1c0,0.9,0,0.8-0.8,1.2l0,0l-1.8,0.9
		c-7,2.8-2.3,8.2,2.6,3.6v0c0.3,0.3,0.5,1.6,1.6,1.7C44.9,32.1,47.5,30.7,46.4,30.1z"/>
	<path class="st0" d="M56.9,29.7c-0.2,0-0.3,0.1-0.4,0.2c-2.8,2.8-7.3-0.2-7.1-3.7c0-2.2,1.6-4.6,4-4.7c0.9,0,1.5,0.6,1.9,1.3
		c0.5,1,1.6,2.2,1.6,0.5c0-0.5,0-0.6,0-1c-0.1-1.3-2.3-1.4-3.3-1.5c-7.5,0.1-8.8,10.7-0.9,11.3c1.3,0,2.5-0.4,3.5-1.2
		C56.6,30.8,57.7,29.9,56.9,29.7z"/>
	<path class="st0" d="M64.3,20.3c0.2,0.3,1.7,4.2,1.9,4.7c0,0.1,0.2,0.4,0.2,0.5c-0.1,0.1-0.4,0.1-0.6,0.1c-0.6,0-3,0.1-3.5,0
		c0,0,0-0.2,0.1-0.2l0,0C62.6,24.8,64.1,20.5,64.3,20.3z M72.1,31.1c-0.7,0-1.2-0.7-1.5-1.3c0,0-0.1-0.2-0.1-0.2
		c-0.1-0.2-0.2-0.5-0.3-0.8c0,0-4.8-12-4.8-12c-0.2-0.7-0.8-0.6-1,0.1c-0.6,1.3-4.8,12.9-5.5,13.8c-0.3,0.3-0.7,0.3-1.1,0.3
		c-0.2,0-0.7,0-0.8,0.4c0,0.3,0.3,0.4,0.6,0.4c0.8,0,1.6-0.1,2.4-0.1c0.8,0,1.6,0.2,2.4,0.1c0.1,0,0.3-0.2,0.3-0.4
		c0-0.5-0.5-0.4-0.7-0.4c-0.5,0-1.5,0-1.5-0.7c0-0.8,0.8-2.3,1-3.1c0.4-0.9,0.1-0.8,1.1-0.9c0.6,0.1,3.8-0.1,4.1,0.1
		c0.2,0.3,1,2.3,1.2,2.8c0.6,1.3,0.4,1.8-1.1,1.7c-0.2,0-0.8,0-0.8,0.5c0,0.3,0.4,0.4,0.5,0.4c2-0.1,3.8-0.1,5.8,0
		c0.1,0,0.4,0,0.5-0.4C72.8,31.1,72.3,31.1,72.1,31.1z"/>
	<path class="st0" d="M80.3,21c-0.5,0-0.9,0.2-1.3,0.4c-0.6,0.4-1.1,1-1.5,1.5c-0.1-0.6,0.4-2.9-0.9-1.7c-0.4,0.4-1.4,1.1-1.9,1.2
		c-0.5,0-1,0.7-0.2,0.8c0.3,0,0.8,0,0.9,0.1c0.2,0.2,0.2,1,0.2,1.5c0,0.5,0,4.8,0,5.2c0.1,0.9-0.5,1.1-1.4,1.2
		c-0.5,0.1-0.4,0.8,0.1,0.8c1.6-0.2,3.2,0.1,4.8-0.1c0.4-0.5-0.3-0.7-0.6-0.7c-1.3-0.1-0.9-1-1-1.8c0,0,0-3.8,0-3.8
		c0-0.1,0-0.1,0-0.2c-0.1-1.1,0.4-2.7,1.7-2.9c0.5,0,0.6,0.9,1.5,0.9C82.4,23.3,81.9,20.9,80.3,21z"/>
	<path class="st0" d="M88.8,30.2c-0.2,0-0.4,0.3-0.6,0.4c-1.9,1.4-2.6-0.6-2.4-2.2c0,0,0-6,0-6c0-0.6,0.4-0.4,0.8-0.4
		c0,0,1.3,0,1.3,0c0.3,0,0.5,0.1,0.8-0.1c0.2-0.2,0.2-0.9-0.2-0.8c0,0-2.4,0-2.4,0c-0.3,0-0.2-0.1-0.3-0.4v-1.7
		c0-0.4-0.5-0.6-0.6-0.1c-0.5,1.1-1.2,1.7-2.2,2.4c-0.5,0.3-0.4,0.8,0.2,0.8c0.3,0,0.4,0,0.6,0c0.2,0,0.2-0.1,0.2,0.3v6.1
		c0,1-0.1,2.2,0.5,3c1,1.2,3,0.9,4.1-0.2C88.8,31.1,89.4,30.3,88.8,30.2z"/>
	<path class="st0" d="M101.8,31.1c-0.2,0-0.5-0.1-0.7-0.2c0,0-0.1-0.1-0.1-0.1c0-0.1-0.1-0.1-0.1-0.2c0-0.1-0.1-0.3-0.1-0.4
		c0-0.8,0-4.1,0-4.9c0.6-4.6-4.3-5.8-7.1-2.9c0,0-0.2,0.1-0.2,0.1c0,0-0.1,0-0.1-0.1v-7c0-0.1,0-0.2,0-0.4c-0.2-0.3-0.7,0-0.9,0.1
		c-0.5,0.4-1.4,0.6-2.1,0.7C90.3,16,90,16,90,16.3c0,0.4,0.5,0.4,0.7,0.4c0.8,0,0.8,0.4,0.8,1.1c0,0.8,0,11.5,0,12.3
		c0,0.7-0.1,1-1,1.1c-0.3,0-0.8,0-0.8,0.4c0,0.3,0.3,0.4,0.4,0.4c0.7,0,1.5-0.1,2.3-0.1c0.8-0.1,1.7,0.2,2.5,0
		c0.1-0.1,0.1-0.2,0.1-0.3c0-0.5-0.6-0.4-0.8-0.4c-1.3-0.1-0.9-1-1-1.8c0,0,0-4.3,0-4.3c0-1,0-1.4,0.7-2.1c1.1-1.3,3.5-1.4,4.4,0
		c0.7,1.3,0.3,4.9,0.4,6.4c0.1,1.2,0.1,1.9-1.4,1.9c-0.2,0-0.3,0.2-0.3,0.4c0,0.3,0.3,0.4,0.4,0.4c0.8,0,1.5-0.1,2.3-0.1
		c0.8-0.1,1.7,0.2,2.5,0c0.1-0.1,0.1-0.2,0.1-0.3C102.5,31.1,102,31.2,101.8,31.1z"/>
	<path class="st0" d="M114.5,30.3c-1.3,0.2-1.2-0.4-1.1-1.4c0,0,0-7,0-7c0-0.3,0.1-0.7-0.4-0.7c0,0-2.8,0-2.8,0
		c-0.2,0-0.5,0-0.4,0.3c0,0.5,0.6,0.4,0.8,0.4c1.3,0,0.9,1,0.9,1.8c0,0,0,4.6,0,4.6c0,0.6,0.1,1.2-0.4,1.7c-1.1,1.3-3.7,1.5-4.8,0
		c-0.4-0.6-0.4-1.8-0.4-2.6c-0.1-0.5,0.1-5.6-0.1-5.9c-0.1-0.1-0.2-0.2-0.4-0.2c-0.2,0-2.9-0.1-3,0.1c-0.3,0.5,0.5,0.7,0.7,0.7
		c1.3,0,0.9,1,1,1.8c0,0,0,3.6,0,3.6c0,1.2-0.1,2.4,0.7,3.4c1.8,2.4,4.9,1.3,6.5-0.2c0.2,0.2,0,1.1,0.1,1.4c0,0.1,0.1,0.3,0.2,0.3
		c0.2,0,0.3-0.1,0.3-0.2c0.7-0.5,1.5-0.8,2.4-1c0.1-0.1,0.5-0.1,0.6-0.4C114.9,30.3,114.6,30.3,114.5,30.3z"/>
	<path class="st0" d="M122.5,21c-0.5,0-0.9,0.2-1.3,0.4c-0.6,0.4-1.1,1-1.5,1.5c-0.1-0.6,0.4-2.9-0.9-1.7c-0.4,0.4-1.4,1.1-1.9,1.2
		c-0.5,0-1.1,0.7-0.2,0.8c0.3,0,0.8,0,0.9,0.1c0.2,0.2,0.2,1,0.2,1.5c0,0.5,0,4.8,0,5.2c0.1,0.9-0.5,1.1-1.4,1.2
		c-0.5,0.1-0.4,0.8,0.1,0.8c1.6-0.2,3.2,0.1,4.8-0.1c0.4-0.5-0.3-0.7-0.7-0.7c-1.3-0.1-0.9-1-1-1.8c0,0,0-3.8,0-3.8
		c0-0.1,0-0.1,0-0.2c-0.1-1.1,0.4-2.7,1.7-2.9c0.5-0.1,0.6,0.9,1.5,0.9C124.6,23.3,124.1,20.9,122.5,21z"/>
</g>
<g>
	<path class="st0" d="M26.6,41.1c0.2,0,0.3-0.2,0.3-0.4c0-0.2,0-0.5,0-0.7c0,0,0-1.7,0-1.7c0-0.4,0.1-1-0.5-0.9c-3.4,0-6.7,0.2-10,0
		c-0.2,0-0.5,0.1-0.5,0.4c0,0.4,0.5,0.4,0.7,0.4c1.4,0,1.3,0.2,1.4,1.4c0,0.1,0,0.3,0,0.4V50c0,1.2,0.3,1.9-1.4,1.9
		c-0.7-0.2-1,0.8-0.2,0.8c1.7-0.1,3.4-0.1,5.2,0c0.3,0,0.5-0.1,0.5-0.4c0-0.4-0.5-0.4-0.7-0.4c-1.6,0-1.3-0.6-1.4-1.9
		c0,0,0-4.4,0-4.4c0-0.4,0.1-0.6,0.2-0.6c0.9-0.2,2.4-0.1,3.6,0.1c0.4,0.1,0.6,0.7,0.7,1.4c0,0.2,0.3,0.7,0.7,0.4
		c0.2-1.5-0.1-3.2,0.1-4.7c0-0.3-0.2-0.4-0.4-0.4c-0.3,0-0.4,0.4-0.4,0.5c-0.1,0.7-0.3,1.5-0.7,1.5c-0.9,0.1-1.9,0.1-2.8,0.1
		c-1,0-1,0.1-1-1v-3.4c0-0.3,0-1,0.2-1c0.3-0.1,1.5-0.2,1.9-0.2c2.1,0,3.3,0,3.9,2.2C26.1,40.7,26.2,41.1,26.6,41.1z"/>
	<path class="st0" d="M31.6,42.2c2.5,0,3.7,2.9,3.6,5h0c0.2,3.8-3.8,7-6.3,3.2C27.1,47.8,27.9,42.3,31.6,42.2z M31.6,41.6
		c-0.9,0-1.8,0.2-2.6,0.6c-0.5,0.2-0.9,0.6-1.2,0.9c-3.5,3.3-0.8,10,3.9,9.7C38.7,52.8,39,41.5,31.6,41.6z"/>
	<path class="st0" d="M49.1,51c-1.3,0.2-1.1-0.4-1.1-1.4c0,0,0-7,0-7c0-0.3,0.1-0.7-0.4-0.7c0,0-2.7,0-2.7,0c-0.2,0-0.5,0-0.4,0.3
		c0,0.5,0.6,0.4,0.8,0.4c1.2,0,0.9,1,0.9,1.8c0,0,0,4.6,0,4.6c0.5,2.6-3.6,3.7-4.9,1.7c-0.4-0.6-0.4-1.8-0.4-2.6
		c-0.1-0.5,0.1-5.6-0.1-5.9c-0.1-0.1-0.2-0.2-0.4-0.2c-0.2,0-2.8-0.1-2.9,0.1c-0.3,0.5,0.4,0.7,0.7,0.7c1.2,0,0.9,1,0.9,1.8
		c0.2,2-0.5,5.3,0.7,7c1.7,2.4,4.8,1.3,6.3-0.2c0.2,0.4,0,1,0.1,1.4c0,0.1,0.1,0.3,0.2,0.3c0.2,0,0.3-0.1,0.3-0.2
		c0.7-0.5,1.5-0.8,2.3-1c0.1-0.1,0.5-0.1,0.6-0.4C49.5,51,49.2,51,49.1,51z"/>
	<path class="st0" d="M62.6,51.9c-0.1,0-0.2,0-0.3,0c-0.9,0-1.1-0.4-1.1-1.1c0-0.4,0-4,0-4.5c0.5-4.9-4.1-6.1-7.1-2.8v-1.4
		c0,0,0-0.1,0-0.1c0-0.6-0.6-0.4-0.8-0.1c-0.3,0.4-1.3,1.1-1.8,1.2c-0.5,0-1,0.7-0.2,0.8c0.2,0,0.7,0,0.9,0.2c0.2,0.2,0.2,1,0.2,1.5
		c0,0.5,0,4.8,0,5.2c0,0.7-0.1,1-0.9,1.1c-0.3,0-0.7,0-0.7,0.4c0,0.3,0.3,0.4,0.4,0.4c1.5-0.2,3.1,0.1,4.6-0.1
		c0.4-0.5-0.2-0.8-0.6-0.7c-1.2-0.1-0.9-1-0.9-1.8c0,0,0-4,0-4c-0.1-4.1,6-4.2,5.3,0.2c0,0,0,3.8,0,3.8c0,0.8,0.3,1.7-0.9,1.8
		c-0.3,0-0.7,0-0.7,0.4c0,0.3,0.3,0.4,0.4,0.4c0.7,0,1.4-0.1,2.2-0.1c0.7-0.1,1.7,0.3,2.4,0c0.1-0.1,0.1-0.2,0.1-0.3
		C62.9,52,62.7,51.9,62.6,51.9z"/>
	<path class="st0" d="M69.2,51.6c-1,0-1.9-0.4-2.6-1.2c-2.4-2.6-1.3-7.9,2.6-8.2c1.8-0.1,3,1,2.8,2.9c0,0.2,0,4.7,0,4.7
		C72,51.1,70.2,51.6,69.2,51.6z M75.1,50.5c-0.1,0-0.2,0.1-0.3,0.2c-0.2,0.2-0.5,0.7-0.8,0.7c-0.3-0.1-0.2-0.8-0.2-1.1
		c0,0,0-14.1,0-14.1c0.1-0.7-0.6-0.5-0.9-0.2c-0.5,0.4-1.4,0.6-2,0.7c-0.1,0-0.4,0.1-0.4,0.4c0,0.4,0.5,0.4,0.7,0.4
		c0.7,0,0.8,0.4,0.8,1.1c-0.1,0.8,0.1,3.1-0.1,3.8c-3.7-1.9-8.6,0.7-8.5,5c0.1,4.9,5,7.4,8.6,4c0.1,0.1,0.1,0.6,0.1,0.7
		c0,0.7,0.2,1,0.9,0.5c0,0,1.8-0.7,1.8-0.7c0.2-0.1,0.5-0.2,0.5-0.5C75.3,51,75.5,50.5,75.1,50.5z"/>
	<path class="st0" d="M82.6,47.2c0,0.1,0,0.2,0,0.3c-0.1,1,0.3,2.4-0.5,3.1c-2.7,2.6-5.3-0.8-1.8-2.5c0.1,0,2.3-1.2,2.3-1.2
		C82.5,47,82.6,47.1,82.6,47.2z M86.1,50.8c-0.2,0-0.3,0.2-0.4,0.3c-1.1,1.1-1.4-0.7-1.3-1.5c0,0,0-5.6,0-5.6c0-0.7,0.1-1.3-0.5-1.8
		c-2.3-1.7-6.8,0-7.3,2.8c0,0.3,0.2,0.4,0.4,0.4c0.8-0.1,1.5-0.5,1.7-1.2c0.5-1.2,1.2-1.9,2.5-1.9c1.8-0.1,1.3,1.9,1.4,3.1
		c0,0.9,0,0.8-0.8,1.2l0,0L80,47.4c-6.7,2.7-2.3,8.3,2.5,3.6l0,0c0,0,0,0,0,0c0.2,0.2,0.4,1.6,1.5,1.6
		C84.7,52.8,87.1,51.4,86.1,50.8z"/>
	<path class="st0" d="M92.7,50.9c-0.2,0.1-0.4,0.3-0.6,0.4c-1.8,1.4-2.4-0.7-2.3-2.2c0,0,0-6,0-6c0-0.6,0.3-0.4,0.7-0.4
		c0,0,1.3,0,1.3,0c0.3,0,0.5,0.1,0.7-0.1c0.2-0.2,0.2-0.9-0.2-0.8c0,0-2.3,0-2.3,0c-0.3,0-0.2-0.1-0.3-0.4v-1.7
		c0-0.4-0.5-0.6-0.6-0.1c-0.5,1.1-1.2,1.7-2.1,2.4c-0.5,0.3-0.4,0.8,0.2,0.8c0.3,0,0.4,0,0.5,0c0.2,0,0.2-0.1,0.2,0.3V49
		c0,1-0.1,2.2,0.5,3c1,1.2,2.9,0.9,3.9-0.2C92.7,51.8,93.3,51,92.7,50.9z"/>
	<path class="st0" d="M96.4,39.7c0.3,0,0.7-0.2,0.9-0.4c0.1-0.2,0.2-0.5,0.2-0.7c0.1-0.6-0.3-1.4-1.1-1.4
		C94.9,37.1,94.9,39.7,96.4,39.7z"/>
	<path class="st0" d="M98.6,51.9c-0.1,0-0.2,0-0.3,0c-0.9,0-1.1-0.4-1.1-1.1c0-0.1,0-8.3,0-8.7c0.1-0.6-0.5-0.6-0.8-0.1
		c-0.3,0.4-1.3,1.1-1.8,1.2c-0.5,0-1,0.7-0.2,0.8c0.2,0,0.7,0,0.9,0.2c0.2,0.2,0.2,1,0.2,1.5c0,0.5,0,4.8,0,5.2c0,0.7-0.1,1-0.9,1.1
		c-0.3,0-0.7,0-0.7,0.4c0,0.3,0.3,0.4,0.4,0.4c0.7,0,1.4-0.1,2.2-0.1c0.7-0.1,1.7,0.3,2.4,0c0.1-0.1,0.1-0.2,0.1-0.3
		C98.9,52,98.8,51.9,98.6,51.9z"/>
	<path class="st0" d="M108.6,47.3L108.6,47.3c-0.3,6.9-7.2,6.1-7.3-0.3C101.5,40.4,108.7,40.9,108.6,47.3z M105,41.6
		c-0.9,0-1.8,0.2-2.7,0.6c-0.5,0.2-0.9,0.6-1.2,0.9c-3.5,3.3-0.8,10,3.9,9.7C112.1,52.8,112.4,41.5,105,41.6z"/>
	<path class="st0" d="M123.1,51.9c-0.1,0-0.2,0-0.2,0c-0.9,0-1.2-0.4-1.1-1.1c0-0.4,0-4,0-4.5c0.5-4.9-4.1-6.1-7.1-2.8v-1.4
		c0-0.2,0-0.5-0.3-0.5c-0.3,0-0.4,0.3-0.5,0.3c-0.3,0.4-1.3,1.1-1.8,1.2c-0.5,0-1,0.7-0.2,0.8c0.2,0,0.7,0,0.9,0.2
		c0.2,0.2,0.2,1,0.2,1.5l0,0V50c0,0.8,0.3,1.7-0.9,1.8c-0.3,0-0.8,0-0.7,0.4c0,0.3,0.3,0.4,0.4,0.4c0.7,0,1.4-0.1,2.2-0.1
		c0.7-0.1,1.7,0.2,2.4,0c0.1-0.1,0.1-0.2,0.1-0.3c0-0.4-0.5-0.4-0.7-0.4c-0.9-0.1-0.9-0.5-0.9-1.1c0-0.4,0-4.2,0-4.7
		c-0.1-4.1,6-4.2,5.3,0.2c0,0,0,3.8,0,3.8c0,0.8,0.3,1.7-0.9,1.8c-0.3,0-0.8,0-0.7,0.4c0,0.3,0.3,0.4,0.4,0.4c0.7,0,1.5-0.1,2.2-0.1
		c0.7-0.1,1.7,0.2,2.4,0c0.1-0.1,0.1-0.2,0.1-0.3C123.4,52,123.3,51.9,123.1,51.9z"/>
</g>
</svg>
